<mxfile host="app.diagrams.net" modified="2020-11-19T16:20:52.473Z" agent="5.0 (Windows NT 10.0; Win64; x64) AppleWebKit/537.36 (KHTML, like Gecko) Chrome/86.0.4240.198 Safari/537.36" etag="SKAi9PEX_FM-32PBTTGk" version="13.10.0" type="github">
  <diagram id="ZPRjHrc5VxOW0aRDgoe0" name="Page-1">
    <mxGraphModel dx="1102" dy="666" grid="1" gridSize="10" guides="1" tooltips="1" connect="1" arrows="1" fold="1" page="1" pageScale="1" pageWidth="827" pageHeight="1169" math="0" shadow="0">
      <root>
        <mxCell id="0" />
        <mxCell id="1" parent="0" />
        <mxCell id="3cY2lZvl8Rjqkr_cRESy-1" value="Table" style="shape=table;startSize=30;container=1;collapsible=1;childLayout=tableLayout;fixedRows=1;rowLines=0;fontStyle=1;align=center;resizeLast=1;" vertex="1" parent="1">
          <mxGeometry x="10" y="260" width="180" height="160" as="geometry" />
        </mxCell>
        <mxCell id="3cY2lZvl8Rjqkr_cRESy-2" value="" style="shape=partialRectangle;collapsible=0;dropTarget=0;pointerEvents=0;fillColor=none;top=0;left=0;bottom=1;right=0;points=[[0,0.5],[1,0.5]];portConstraint=eastwest;" vertex="1" parent="3cY2lZvl8Rjqkr_cRESy-1">
          <mxGeometry y="30" width="180" height="30" as="geometry" />
        </mxCell>
        <mxCell id="3cY2lZvl8Rjqkr_cRESy-3" value="PK" style="shape=partialRectangle;connectable=0;fillColor=none;top=0;left=0;bottom=0;right=0;fontStyle=1;overflow=hidden;" vertex="1" parent="3cY2lZvl8Rjqkr_cRESy-2">
          <mxGeometry width="30" height="30" as="geometry" />
        </mxCell>
        <mxCell id="3cY2lZvl8Rjqkr_cRESy-4" value="UniqueID" style="shape=partialRectangle;connectable=0;fillColor=none;top=0;left=0;bottom=0;right=0;align=left;spacingLeft=6;fontStyle=5;overflow=hidden;" vertex="1" parent="3cY2lZvl8Rjqkr_cRESy-2">
          <mxGeometry x="30" width="150" height="30" as="geometry" />
        </mxCell>
        <mxCell id="3cY2lZvl8Rjqkr_cRESy-5" value="" style="shape=partialRectangle;collapsible=0;dropTarget=0;pointerEvents=0;fillColor=none;top=0;left=0;bottom=0;right=0;points=[[0,0.5],[1,0.5]];portConstraint=eastwest;" vertex="1" parent="3cY2lZvl8Rjqkr_cRESy-1">
          <mxGeometry y="60" width="180" height="30" as="geometry" />
        </mxCell>
        <mxCell id="3cY2lZvl8Rjqkr_cRESy-6" value="" style="shape=partialRectangle;connectable=0;fillColor=none;top=0;left=0;bottom=0;right=0;editable=1;overflow=hidden;" vertex="1" parent="3cY2lZvl8Rjqkr_cRESy-5">
          <mxGeometry width="30" height="30" as="geometry" />
        </mxCell>
        <mxCell id="3cY2lZvl8Rjqkr_cRESy-7" value="Row 1" style="shape=partialRectangle;connectable=0;fillColor=none;top=0;left=0;bottom=0;right=0;align=left;spacingLeft=6;overflow=hidden;" vertex="1" parent="3cY2lZvl8Rjqkr_cRESy-5">
          <mxGeometry x="30" width="150" height="30" as="geometry" />
        </mxCell>
        <mxCell id="3cY2lZvl8Rjqkr_cRESy-8" value="" style="shape=partialRectangle;collapsible=0;dropTarget=0;pointerEvents=0;fillColor=none;top=0;left=0;bottom=0;right=0;points=[[0,0.5],[1,0.5]];portConstraint=eastwest;" vertex="1" parent="3cY2lZvl8Rjqkr_cRESy-1">
          <mxGeometry y="90" width="180" height="30" as="geometry" />
        </mxCell>
        <mxCell id="3cY2lZvl8Rjqkr_cRESy-9" value="" style="shape=partialRectangle;connectable=0;fillColor=none;top=0;left=0;bottom=0;right=0;editable=1;overflow=hidden;" vertex="1" parent="3cY2lZvl8Rjqkr_cRESy-8">
          <mxGeometry width="30" height="30" as="geometry" />
        </mxCell>
        <mxCell id="3cY2lZvl8Rjqkr_cRESy-10" value="Row 2" style="shape=partialRectangle;connectable=0;fillColor=none;top=0;left=0;bottom=0;right=0;align=left;spacingLeft=6;overflow=hidden;" vertex="1" parent="3cY2lZvl8Rjqkr_cRESy-8">
          <mxGeometry x="30" width="150" height="30" as="geometry" />
        </mxCell>
        <mxCell id="3cY2lZvl8Rjqkr_cRESy-11" value="" style="shape=partialRectangle;collapsible=0;dropTarget=0;pointerEvents=0;fillColor=none;top=0;left=0;bottom=0;right=0;points=[[0,0.5],[1,0.5]];portConstraint=eastwest;" vertex="1" parent="3cY2lZvl8Rjqkr_cRESy-1">
          <mxGeometry y="120" width="180" height="30" as="geometry" />
        </mxCell>
        <mxCell id="3cY2lZvl8Rjqkr_cRESy-12" value="" style="shape=partialRectangle;connectable=0;fillColor=none;top=0;left=0;bottom=0;right=0;editable=1;overflow=hidden;" vertex="1" parent="3cY2lZvl8Rjqkr_cRESy-11">
          <mxGeometry width="30" height="30" as="geometry" />
        </mxCell>
        <mxCell id="3cY2lZvl8Rjqkr_cRESy-13" value="Row 3" style="shape=partialRectangle;connectable=0;fillColor=none;top=0;left=0;bottom=0;right=0;align=left;spacingLeft=6;overflow=hidden;" vertex="1" parent="3cY2lZvl8Rjqkr_cRESy-11">
          <mxGeometry x="30" width="150" height="30" as="geometry" />
        </mxCell>
        <mxCell id="3cY2lZvl8Rjqkr_cRESy-14" value="Table" style="shape=table;startSize=30;container=1;collapsible=1;childLayout=tableLayout;fixedRows=1;rowLines=0;fontStyle=1;align=center;resizeLast=1;" vertex="1" parent="1">
          <mxGeometry x="40" y="60" width="180" height="160" as="geometry" />
        </mxCell>
        <mxCell id="3cY2lZvl8Rjqkr_cRESy-15" value="" style="shape=partialRectangle;collapsible=0;dropTarget=0;pointerEvents=0;fillColor=none;top=0;left=0;bottom=0;right=0;points=[[0,0.5],[1,0.5]];portConstraint=eastwest;" vertex="1" parent="3cY2lZvl8Rjqkr_cRESy-14">
          <mxGeometry y="30" width="180" height="30" as="geometry" />
        </mxCell>
        <mxCell id="3cY2lZvl8Rjqkr_cRESy-16" value="PK,FK1" style="shape=partialRectangle;connectable=0;fillColor=none;top=0;left=0;bottom=0;right=0;fontStyle=1;overflow=hidden;" vertex="1" parent="3cY2lZvl8Rjqkr_cRESy-15">
          <mxGeometry width="60" height="30" as="geometry" />
        </mxCell>
        <mxCell id="3cY2lZvl8Rjqkr_cRESy-17" value="Row 1" style="shape=partialRectangle;connectable=0;fillColor=none;top=0;left=0;bottom=0;right=0;align=left;spacingLeft=6;fontStyle=5;overflow=hidden;" vertex="1" parent="3cY2lZvl8Rjqkr_cRESy-15">
          <mxGeometry x="60" width="120" height="30" as="geometry" />
        </mxCell>
        <mxCell id="3cY2lZvl8Rjqkr_cRESy-18" value="" style="shape=partialRectangle;collapsible=0;dropTarget=0;pointerEvents=0;fillColor=none;top=0;left=0;bottom=1;right=0;points=[[0,0.5],[1,0.5]];portConstraint=eastwest;" vertex="1" parent="3cY2lZvl8Rjqkr_cRESy-14">
          <mxGeometry y="60" width="180" height="30" as="geometry" />
        </mxCell>
        <mxCell id="3cY2lZvl8Rjqkr_cRESy-19" value="PK,FK2" style="shape=partialRectangle;connectable=0;fillColor=none;top=0;left=0;bottom=0;right=0;fontStyle=1;overflow=hidden;" vertex="1" parent="3cY2lZvl8Rjqkr_cRESy-18">
          <mxGeometry width="60" height="30" as="geometry" />
        </mxCell>
        <mxCell id="3cY2lZvl8Rjqkr_cRESy-20" value="Row 2" style="shape=partialRectangle;connectable=0;fillColor=none;top=0;left=0;bottom=0;right=0;align=left;spacingLeft=6;fontStyle=5;overflow=hidden;" vertex="1" parent="3cY2lZvl8Rjqkr_cRESy-18">
          <mxGeometry x="60" width="120" height="30" as="geometry" />
        </mxCell>
        <mxCell id="3cY2lZvl8Rjqkr_cRESy-21" value="" style="shape=partialRectangle;collapsible=0;dropTarget=0;pointerEvents=0;fillColor=none;top=0;left=0;bottom=0;right=0;points=[[0,0.5],[1,0.5]];portConstraint=eastwest;" vertex="1" parent="3cY2lZvl8Rjqkr_cRESy-14">
          <mxGeometry y="90" width="180" height="30" as="geometry" />
        </mxCell>
        <mxCell id="3cY2lZvl8Rjqkr_cRESy-22" value="" style="shape=partialRectangle;connectable=0;fillColor=none;top=0;left=0;bottom=0;right=0;editable=1;overflow=hidden;" vertex="1" parent="3cY2lZvl8Rjqkr_cRESy-21">
          <mxGeometry width="60" height="30" as="geometry" />
        </mxCell>
        <mxCell id="3cY2lZvl8Rjqkr_cRESy-23" value="Row 3" style="shape=partialRectangle;connectable=0;fillColor=none;top=0;left=0;bottom=0;right=0;align=left;spacingLeft=6;overflow=hidden;" vertex="1" parent="3cY2lZvl8Rjqkr_cRESy-21">
          <mxGeometry x="60" width="120" height="30" as="geometry" />
        </mxCell>
        <mxCell id="3cY2lZvl8Rjqkr_cRESy-24" value="" style="shape=partialRectangle;collapsible=0;dropTarget=0;pointerEvents=0;fillColor=none;top=0;left=0;bottom=0;right=0;points=[[0,0.5],[1,0.5]];portConstraint=eastwest;" vertex="1" parent="3cY2lZvl8Rjqkr_cRESy-14">
          <mxGeometry y="120" width="180" height="30" as="geometry" />
        </mxCell>
        <mxCell id="3cY2lZvl8Rjqkr_cRESy-25" value="" style="shape=partialRectangle;connectable=0;fillColor=none;top=0;left=0;bottom=0;right=0;editable=1;overflow=hidden;" vertex="1" parent="3cY2lZvl8Rjqkr_cRESy-24">
          <mxGeometry width="60" height="30" as="geometry" />
        </mxCell>
        <mxCell id="3cY2lZvl8Rjqkr_cRESy-26" value="Row 4" style="shape=partialRectangle;connectable=0;fillColor=none;top=0;left=0;bottom=0;right=0;align=left;spacingLeft=6;overflow=hidden;" vertex="1" parent="3cY2lZvl8Rjqkr_cRESy-24">
          <mxGeometry x="60" width="120" height="30" as="geometry" />
        </mxCell>
        <mxCell id="3cY2lZvl8Rjqkr_cRESy-27" value="" style="rhombus;" vertex="1" parent="1">
          <mxGeometry x="80" y="510" width="30" height="30" as="geometry" />
        </mxCell>
      </root>
    </mxGraphModel>
  </diagram>
</mxfile>
